Coordinates
version=1
nRows=24
nColumns=24
inDegrees=yes

Units are S.I. units (second, meters, Newtons, ...)
Angles are in degrees.

endheader
time	pelvis_tilt	pelvis_list	pelvis_rotation	pelvis_tx	pelvis_ty	pelvis_tz	hip_flexion_r	hip_adduction_r	hip_rotation_r	knee_angle_r	ankle_angle_r	subtalar_angle_r	mtp_angle_r	hip_flexion_l	hip_adduction_l	hip_rotation_l	knee_angle_l	ankle_angle_l	subtalar_angle_l	mtp_angle_l	lumbar_extension	lumbar_bending	lumbar_rotation
      0.61200000	      1.98746147	      0.71916329	     11.47712938	     -0.73301134	      0.88171157	      0.26311414	     26.89844496	     -2.29428765	    -12.00367382	     -7.35890163	      6.96760431	      2.47664712	      4.42996759	    -26.17000824	     -1.59774092	      7.11656461	     -6.62134978	     12.68359102	      1.84277312	     20.26994049	    -10.45074145	     -0.12603001	    -13.89350034
      0.61616667	      1.92598756	      0.63810641	     11.49579470	     -0.72710453	      0.88060574	      0.26348101	     27.09186949	     -2.16324439	    -11.90720669	     -8.13609115	      6.85359182	      2.31092418	      4.37667385	    -26.18213172	     -1.76397899	      6.84360206	     -7.22553217	     12.65246480	      2.25805909	     20.35489883	    -10.34810760	      0.01580463	    -13.70886330
      0.62033333	      1.92425023	      0.52357682	     11.53031633	     -0.72109745	      0.87964429	      0.26382102	     27.18393059	     -1.98758475	    -11.87618976	     -8.86460560	      6.68516060	      2.13978534	      4.36847945	    -26.32047298	     -1.97547177	      6.77126586	     -7.69015607	     12.44298619	      2.23788259	     20.37983787	    -10.30547166	      0.21525973	    -13.69016826
      0.62450000	      1.81493557	      0.44461767	     11.51801106	     -0.71508393	      0.87855146	      0.26426856	     27.39967032	     -1.83557658	    -11.67458558	     -9.61768942	      6.42464705	      1.80596737	      4.36536376	    -26.28880713	     -2.11319856	      6.58741398	     -8.28108122	     12.23639849	      2.43509380	     20.50900748	    -10.12989435	      0.35583356	    -13.54639279
      0.62866667	      1.76505617	      0.33512377	     11.51755098	     -0.70899592	      0.87758465	      0.26471088	     27.53153659	     -1.64391302	    -11.55545971	    -10.34485579	      6.09058905	      1.47421704	      4.37857061	    -26.32085279	     -2.30205823	      6.39407553	     -8.86402833	     12.00071809	      2.58206866	     20.68776049	    -10.01523101	      0.54272327	    -13.41192818
      0.63283333	      1.71034315	      0.21856139	     11.50177897	     -0.70286077	      0.87664548	      0.26519616	     27.66367402	     -1.43443103	    -11.43070315	    -11.06724504	      5.70343591	      1.11107855	      4.40938954	    -26.33877979	     -2.48847652	      6.22864912	     -9.46714833	     11.73737510	      2.67980742	     20.90261858	     -9.90532668	      0.72430384	    -13.28255551
      0.63700000	      1.74910279	      0.03833210	     11.47821251	     -0.69660767	      0.87586788	      0.26572132	     27.65418505	     -1.12359960	    -11.31092644	    -11.69444395	      5.18816251	      0.61227866	      4.72531267	    -26.43156065	     -2.77232263	      5.86541748	    -10.10589423	     11.52142138	      3.05599513	     22.38798230	     -9.87242895	      1.01082825	    -13.07270067
      0.64116667	      1.61419581	     -0.03220906	     11.44618819	     -0.69044795	      0.87491530	      0.26624547	     27.89634558	     -0.97257732	    -11.15971727	    -12.50039380	      4.77986749	      0.21428325	      4.78328638	    -26.33880797	     -2.87466264	      5.84844709	    -10.76733222	     11.14099596	      2.86967229	     22.65453498	     -9.67456566	      1.11259742	    -12.98304549
      0.64533333	      1.54387422	     -0.17177436	     11.39901761	     -0.68416329	      0.87409189	      0.26683139	     28.02829402	     -0.71542575	    -10.99853043	    -13.20217453	      4.22776553	     -0.30533640	      4.87844776	    -26.30255184	     -3.06910754	      5.67492752	    -11.43919804	     10.75218435	      2.89552204	     23.04200487	     -9.52701012	      1.31434901	    -12.79263830
      0.64950000	      1.47132817	     -0.31179287	     11.34569527	     -0.67782381	      0.87332113	      0.26739314	     28.16704323	     -0.46722451	    -10.88721656	    -13.92682822	      3.68621659	     -0.67215095	      4.94502438	    -26.25993386	     -3.25661328	      5.51521846	    -12.11076556	     10.23436027	      2.90116994	     23.30979170	     -9.35849633	      1.54448865	    -12.66155499
      0.65366667	      1.41783712	     -0.48097299	     11.28921566	     -0.67146752	      0.87257799	      0.26801707	     28.29649137	     -0.17975508	    -10.77380329	    -14.66527432	      3.11183626	     -1.17919835	      6.36813276	    -26.16325210	     -3.49554446	      5.18363032	    -12.92568079	      9.83137156	      3.08788774	     28.34277593	     -9.24211109	      1.78357111	    -12.54574221
      0.65783333	      1.33063734	     -0.63188505	     11.22018284	     -0.66505218	      0.87188839	      0.26862682	     28.46122341	      0.08251312	    -10.64716205	    -15.42596850	      2.58249760	     -1.59239124	      6.35810572	    -26.08164578	     -3.67544710	      5.11423482	    -13.63676831	      9.21952374	      2.93280049	     28.38098438	     -9.06654938	      2.00303327	    -12.35457530
      0.66200000	      1.24469397	     -0.77607320	     11.13483945	     -0.65865185	      0.87122082	      0.26929712	     28.64128553	      0.35243202	    -10.46330525	    -16.22334232	      2.04718027	     -2.18173784	      6.36133252	    -25.95449251	     -3.84751069	      4.97266885	    -14.44639168	      8.73731303	      2.85658053	     28.49654462	     -8.89775045	      2.20530973	    -12.11392770
      0.66616667	      1.15384694	     -0.94086781	     11.04895053	     -0.65220243	      0.87060058	      0.26996099	     28.82841104	      0.63590834	    -10.30943894	    -17.03294359	      1.55641172	     -2.66552188	      6.37635827	    -25.79011433	     -4.04072912	      4.80634867	    -15.30948595	      8.15776669	      2.82537675	     28.66824368	     -8.72001494	      2.43741921	    -11.90939153
      0.67033333	      1.06140689	     -1.10245917	     10.95339880	     -0.64572999	      0.87002433	      0.27063791	     29.03015860	      0.91462119	    -10.15749069	    -17.88483345	      1.12664470	     -3.11219877	      6.39600318	    -25.60481797	     -4.22529089	      4.64173453	    -16.20118666	      7.55544390	      2.78573387	     28.88130672	     -8.53811347	      2.67086862	    -11.70682950
      0.67450000	      0.96455560	     -1.27151828	     10.85454949	     -0.63923191	      0.86949398	      0.27132320	     29.24421882	      1.19846843	    -10.00695954	    -18.76574455	      0.76148300	     -3.52347625	      6.41457556	    -25.38463692	     -4.41399066	      4.47989789	    -17.14496653	      6.92253344	      2.74239911	     29.12413606	     -8.35352594	      2.90832857	    -11.51065696
      0.67866667	      0.87088989	     -1.43866805	     10.74772571	     -0.63272794	      0.86901769	      0.27201358	     29.46405157	      1.48077756	     -9.85259309	    -19.68073173	      0.47085205	     -3.89896479	      6.42832458	    -25.14271765	     -4.59596366	      4.32268076	    -18.12710813	      6.24373242	      2.67926013	     29.38882623	     -8.17169980	      3.15174038	    -11.31031376
      0.68283333	      0.80322978	     -1.63388659	     10.64655051	     -0.62616299	      0.86863943	      0.27268497	     29.64642861	      1.78995667	     -9.72890195	    -20.59153122	      0.30033717	     -4.15331189	      6.43128144	    -24.91538080	     -4.81214229	      4.17444347	    -19.11244258	      5.46539732	      2.59624697	     29.54333865	     -8.01331380	      3.44788419	    -11.17470240
      0.68700000	      0.69660725	     -1.78293731	     10.53167535	     -0.61967923	      0.86822598	      0.27339016	     29.90371919	      2.05147577	     -9.55582164	    -21.58554510	      0.14580010	     -4.51696009	      6.42363318	    -24.57844310	     -4.96971112	      4.00618927	    -20.23762694	      4.80481963	      2.54374447	     29.88151005	     -7.82516077	      3.64691188	    -10.91588699
      0.69116667	      0.67482489	     -1.97296895	     10.41185715	     -0.61311949	      0.86799937	      0.27410229	     30.04046829	      2.37571874	     -9.40154418	    -22.53095618	      0.14636982	     -4.74516177	      6.13453983	    -24.33119277	     -5.19203841	      3.77836479	    -21.32285915	      3.95637947	      2.49511155	     34.11792419	     -7.73575640	      3.92629741	    -10.62073664
      0.69533333	      0.60794112	     -2.18107730	     10.31287807	     -0.60655100	      0.86777026	      0.27475438	     30.22262613	      2.69277537	     -9.28660748	    -23.48063807	      0.18460026	     -4.92227000	      6.12947031	    -23.99366233	     -5.42042753	      3.62668189	    -22.47881973	      3.13131600	      2.36562268	     34.12821808	     -7.56306705	      4.25163960	    -10.57770804
      0.69950000	      0.53346776	     -2.34118130	     10.19751761	     -0.60004831	      0.86755513	      0.27543379	     30.42668482	      2.96646450	     -9.14032761	    -24.48079370	      0.28990253	     -5.09924685	      6.10234479	    -23.60041547	     -5.59703813	      3.44421505	    -23.72513324	      2.35754902	      2.31414583	     34.16285525	     -7.40463924	      4.48292280	    -10.40823001
      0.70366667	      0.51949623	     -2.54625882	     10.09400521	     -0.59349099	      0.86750547	      0.27608749	     30.52640494	      3.29736416	     -9.01711088	    -25.40565829	      0.49539802	     -5.21869267	      6.08063761	    -23.25779373	     -5.83416825	      3.26556997	    -24.95741806	      1.44357852	      2.21435776	     34.18097131	     -7.30836814	      4.80447281	    -10.28851551
      0.70783333	      0.50129005	     -2.73757570	      9.98396253	     -0.58697850	      0.86748190	      0.27674230	     30.62599345	      3.61552037	     -8.89200135	    -26.33011943	      0.74765343	     -5.31291388	      6.04759270	    -22.86968322	     -6.05776354	      3.06726491	    -26.25776259	      0.56674497	      2.13819537	     34.20026337	     -7.21048067	      5.09794667	    -10.14093316
